<?xml version="1.0" encoding="UTF-8"?>
<svg width="723px" height="538px" viewBox="0 0 723 538" version="1.1" xmlns="http://www.w3.org/2000/svg" xmlns:xlink="http://www.w3.org/1999/xlink">
    <title>Asset 1</title>
    <g id="Page-1" stroke="none" stroke-width="1" fill="none" fill-rule="evenodd">
        <g id="Apple-TV-Copy-35" transform="translate(-972.000000, -1743.000000)">
            <g id="Asset-1" transform="translate(972.000000, 1743.000000)">
                <path d="M168,486 L169.917208,500.985788 C169.917208,500.985788 170.157373,507.028544 175.428669,507.512958 C180.699966,507.997373 456,538 456,538 L168,486 Z" id="Path" fill="#3A7EC1" fill-rule="nonzero" opacity="0.2" style="mix-blend-mode: multiply;"></path>
                <polygon id="Path" fill="#444444" fill-rule="nonzero" points="20.6239573 361 20.274132 305.603105 23.1402439 305.586558 23.4593827 356.151763 116.332863 305.278372 22.8927068 266.33942 22.9970406 282.656715 20.1309287 282.67533 20 262 123 304.920546"></polygon>
                <circle id="Oval" fill="#3A7EC1" fill-rule="nonzero" opacity="0.2" style="mix-blend-mode: multiply;" transform="translate(109.508168, 325.662187) rotate(-45.000000) translate(-109.508168, -325.662187) " cx="109.508168" cy="325.662187" r="76.8629754"></circle>
                <circle id="Oval" fill="#52D1BD" fill-rule="nonzero" cx="114" cy="316" r="77"></circle>
                <path d="M110.285943,344.279636 L126.45312,358.521105 C130.116941,361.747176 135.889614,359.374281 136.221943,354.503387 L137.694857,333.011975 C137.826409,331.079685 138.900338,329.335751 140.566833,328.348222 L159.109545,317.375892 C163.310837,314.890197 162.836961,308.667758 158.307443,306.844505 L138.318486,298.804966 C136.519369,298.081903 135.191931,296.51929 134.769544,294.627277 L130.051296,273.607573 C128.984562,268.843325 122.918537,267.370777 119.794237,271.113675 L105.967721,287.635749 C104.726275,289.121999 102.833471,289.903315 100.904836,289.725619 L79.4532225,287.705479 C74.5934278,287.246077 71.3173231,292.559967 73.9144105,296.694587 L85.3592373,314.947623 C86.3871721,316.590296 86.5406059,318.633526 85.7695197,320.411228 L77.219235,340.17783 C75.2827022,344.657002 79.3239836,349.406893 84.0586422,348.225573 L104.958426,342.983465 C106.839416,342.513467 108.83131,342.998089 110.285943,344.279636 Z" id="Path" fill="#FFFFFF" fill-rule="nonzero"></path>
                <path d="M596.377291,283.615998 C583.030776,316.631713 539.500602,424.171727 517.197548,478.22435 C514.938907,483.675242 512.910236,488.577345 511.148496,492.817613 C509.222972,497.481849 506.981001,502.008789 504.438279,506.366738 C501.210475,511.852571 497.799927,516.409369 494.311354,520.189229 C479.669199,536.056833 463.795059,538.196493 455.351848,537.986844 C455.341544,537.994725 455.327245,537.994725 455.316942,537.986844 L455.245076,537.986844 C451.518318,537.88613 449.27405,537.339396 449.27405,537.339396 L441.980693,535.345669 L389.372835,520.968222 L204,470.327545 L257.431235,324.544962 L261.451616,313.47258 L291.134267,231.635208 C292.786393,227.080096 297.445012,224.348591 302.222141,225.134012 L514.261314,259.705657 L535.644486,263.199818 L589.880618,272.037991 C592.428442,272.45424 594.648456,274.008753 595.912696,276.261812 C597.176937,278.514871 597.347924,281.221467 596.377291,283.615998 Z" id="Path" fill="#3B82F4" fill-rule="nonzero"></path>
                <path d="M416.690744,384.824493 L355.384139,81.447601 C354.568422,77.4111445 352.184902,73.8645409 348.757954,71.5880471 C345.331007,69.3115534 341.141369,68.4916599 337.110765,69.3087442 L97.4309979,117.880612 C89.0417635,119.580854 83.6157574,127.767939 85.3096258,136.170069 L146.61623,439.551071 C148.314023,447.952406 156.489316,453.386239 164.879344,451.689928 L404.569371,403.11395 C412.957922,401.41269 418.38341,393.226387 416.690744,384.824493 Z" id="Path" fill="#3A7EC1" fill-rule="nonzero" opacity="0.2" style="mix-blend-mode: multiply;"></path>
                <path d="M181.243205,419 C173.188619,418.981047 166.258034,413.292614 164.658442,405.387686 L103.33649,101.928869 C101.49139,92.7437913 107.419141,83.7963744 116.587467,81.9276887 L356.357286,33.336948 C365.529871,31.489335 374.465117,37.4251598 376.331261,46.6059738 L437.663478,350.06479 C439.508652,359.25034 433.581113,368.198357 424.4125,370.068026 L184.642682,418.656711 C183.523872,418.88491 182.384988,419 181.243205,419 L181.243205,419 Z M359.72597,35.8776941 C358.78697,35.8776941 357.85038,35.9728713 356.930024,36.159314 L117.160205,84.7500547 C109.544122,86.2999817 104.619323,93.7321901 106.152964,101.361518 L167.48518,404.818279 C168.225493,408.481442 170.38876,411.700054 173.499042,413.765991 C176.609324,415.831928 180.411819,416.575942 184.069944,415.834346 L423.839762,367.243605 C431.452239,365.691688 436.374187,358.262849 434.842898,350.636253 L373.514787,47.1774361 C372.178964,40.6113475 366.417799,35.8901543 359.72597,35.8776941 Z" id="Shape" fill="#444444" fill-rule="nonzero"></path>
                <path d="M411.568939,386.113333 L171.890009,434.689924 C163.499939,436.386257 155.324605,430.952355 153.626803,422.550913 L92.3096274,119.176356 C90.6157504,110.77412 96.041784,102.586931 104.431061,100.886667 L344.109991,52.3100764 C352.500061,50.6137431 360.675395,56.0476447 362.373197,64.4490865 L423.690373,367.823644 C425.38425,376.22588 419.958216,384.413069 411.568939,386.113333 Z" id="Path" fill="#FFFFFF" fill-rule="nonzero"></path>
                <circle id="Oval" fill="#ECF3FE" fill-rule="nonzero" transform="translate(173.380758, 165.469592) rotate(-45.000000) translate(-173.380758, -165.469592) " cx="173.380758" cy="165.469592" r="45.133568"></circle>
                <path d="M201,189.506059 C198.968945,191.878943 196.63733,193.972783 194.06498,195.733855 C192.744825,196.644023 191.363223,197.460246 189.930246,198.176575 C188.386363,198.954272 186.78751,199.61588 185.146765,200.155984 C183.782543,200.611907 182.392174,200.984202 180.98329,201.270824 C179.573849,201.558952 178.148585,201.762012 176.715111,201.878919 C170.269696,202.412901 163.8013,201.174028 158,198.294471 C159.629669,192.905257 163.344268,188.403967 168.30604,185.805783 L168.30604,185.805783 C168.30604,185.805783 168.30604,185.805783 168.318358,185.805783 C169.18404,185.352322 170.082368,184.965137 171.005729,184.647508 C171.041897,184.632256 171.078913,184.619135 171.116591,184.60821 C171.946469,184.321567 172.794125,184.090104 173.654094,183.915313 L181.014085,182.411624 C181.873165,182.235831 182.742764,182.11699 183.617283,182.055868 C183.656807,182.050669 183.696834,182.050669 183.736357,182.055868 C184.710814,181.981377 185.689472,181.981377 186.663929,182.055868 L186.663929,182.055868 L186.663929,182.055868 C192.243159,182.494023 197.411423,185.179874 201,189.506059 L201,189.506059 Z" id="Path" fill="#727272" fill-rule="nonzero"></path>
                <path d="M190.977256,146.400787 L195.805892,169.995327 C196.317905,172.491183 195.8075,175.086237 194.387013,177.209335 C192.966525,179.332434 190.752376,180.809571 188.231885,181.315641 L165.835761,185.80945 C163.314618,186.314387 160.694189,185.806403 158.551385,184.397336 C156.408581,182.988269 154.91908,180.793641 154.410809,178.296618 L149.580111,154.708206 C145.291887,133.752757 166.184347,130.543769 166.184347,130.543769 C166.184347,130.543769 171.520392,129.220138 177.322593,130.703095 C182.51219,132.026726 188.073062,135.605432 190.500787,144.415341 C190.676111,145.046517 190.834934,145.710375 190.977256,146.400787 Z" id="Path" fill="#302F2F" fill-rule="nonzero"></path>
                <path d="M181.52792,178.471462 L182.909383,185.820698 C183.495701,188.931154 181.174523,192.089164 177.748977,192.839219 C174.323432,193.589273 171.044466,191.641725 170.468187,188.524785 L169.086725,181.175549 C168.858078,179.898365 169.085381,178.575335 169.723242,177.470669 C169.867564,177.202955 170.032101,176.948476 170.215187,176.709807 C170.575223,176.233767 170.992523,175.811439 171.456094,175.453952 C173.145108,174.16864 175.258436,173.707366 177.279119,174.182966 C177.8344,174.31664 178.370585,174.529638 178.873423,174.816298 L178.949725,174.859529 C179.177861,174.993543 179.396634,175.145252 179.604314,175.313452 C180.591303,176.068581 181.278048,177.19602 181.52792,178.471462 L181.52792,178.471462 Z" id="Path" fill="#F4B698" fill-rule="nonzero"></path>
                <path d="M188.633253,151.518457 L190.672514,161.697934 C192.054561,168.685367 188.982102,175.802729 182.970226,179.540312 L183.508591,182.215331 C181.837028,183.256015 179.996588,183.99091 178.071922,184.386212 L176.719892,184.661945 C174.793403,185.058528 172.812408,185.106602 170.869253,184.803926 L170.330888,182.128907 C163.351121,181.05017 157.774203,175.701916 156.351755,168.722946 L154.312494,158.543469 C152.550184,149.383991 158.417853,140.498286 167.473883,138.612518 L168.825913,138.336785 C172.552028,137.574427 176.424347,138.115098 179.805293,139.869777 L179.805293,139.869777 C184.344123,142.203597 187.590368,146.487085 188.633253,151.518457 Z" id="Path" fill="#000000" fill-rule="nonzero" opacity="0.28"></path>
                <path d="M188.138626,149.59146 L190.667822,162.375655 C191.338687,165.74484 190.988223,169.24352 189.663376,172.403039 L189.653331,172.415383 C189.353821,173.123359 189.00957,173.810589 188.622769,174.472705 C187.253736,176.812978 185.356489,178.782772 183.09028,180.216746 C181.439302,181.259828 179.620416,181.994055 177.718502,182.385163 L176.386606,182.660844 C174.490279,183.058025 172.540105,183.106788 170.627111,182.804856 C163.74992,181.724523 158.25512,176.376283 156.852136,169.397293 L154.337003,156.683046 C154.300843,156.506117 154.272718,156.32713 154.242585,156.1502 C153.445263,151.433434 154.633308,146.591356 157.513062,142.820815 C157.954366,142.24214 158.430743,141.692438 158.939375,141.174958 C161.220685,138.851373 164.118285,137.265345 167.272261,136.613876 L168.604157,136.336138 C172.150333,135.599538 175.834731,136.081134 179.086557,137.706314 C180.767305,138.535679 182.300006,139.648413 183.620627,140.998028 C185.919143,143.345089 187.490699,146.334256 188.138626,149.59146 L188.138626,149.59146 Z" id="Path" fill="#F4B698" fill-rule="nonzero"></path>
                <path d="M195.863417,155.253368 C196.220362,156.961127 195.871095,158.738437 194.892863,160.192203 C193.914632,161.645969 192.388047,162.656394 190.650749,163 L188,150.132645 C188.87784,149.955785 189.783003,149.955785 190.660843,150.132645 L190.679013,150.132645 C193.293918,150.66324 195.334298,152.678558 195.863417,155.253368 Z" id="Path" fill="#F4B698" fill-rule="nonzero"></path>
                <path d="M193.91725,155.238749 C194.136454,156.289135 193.916079,157.380886 193.304608,158.273805 C192.693137,159.166724 191.740664,159.78766 190.656744,160 L189,152.081039 C190.084215,151.867397 191.211599,152.080131 192.133882,152.672394 C193.056166,153.264657 193.697715,154.187878 193.91725,155.238749 L193.91725,155.238749 Z" id="Path" fill="#E29586" fill-rule="nonzero"></path>
                <path d="M186,182 L186,182 L184.420735,200.262955 C183.010216,200.722612 181.572662,201.097955 180.115965,201.386925 C178.658692,201.677413 177.18506,201.882136 175.702938,202 L167,185.784798 L167,185.784798 L170.634007,185.061203 L170.788962,185.165468 L177.721595,189.84694 L182.264105,182.877906 L182.36387,182.723595 L186,182 Z" id="Path" fill="#565656" fill-rule="nonzero"></path>
                <path d="M153.374125,157 L156,169.850202 C152.686089,170.563348 149.366688,168.669062 148.322132,165.468666 C147.277575,162.26827 148.847837,158.803403 151.954192,157.45433 C152.048188,157.410683 152.154183,157.371003 152.244178,157.335292 L152.404171,157.27974 C152.719139,157.160059 153.043569,157.066492 153.374125,157 L153.374125,157 Z" id="Path" fill="#F4B698" fill-rule="nonzero"></path>
                <path d="M151.083221,163.760102 C151.540631,165.94721 153.741695,167.361345 156,166.919025 L154.342728,159 C153.258568,159.212257 152.30595,159.833127 151.69461,160.725912 C151.083271,161.618697 150.863333,162.710199 151.083221,163.760102 Z" id="Path" fill="#E29586" fill-rule="nonzero"></path>
                <path d="M194,195 C192.81413,196.117813 191.573063,197.120249 190.285846,198 L190,196.112616 L194,195 Z" id="Path" fill="#565656" fill-rule="nonzero"></path>
                <polygon id="Path" fill="#363636" fill-rule="nonzero" opacity="0.2" points="178 190.555199 183.649474 193 186 183"></polygon>
                <polygon id="Path" fill="#EEEEEE" fill-rule="nonzero" points="186 182.196834 183.497562 192 178 189.834821 182.487555 182.900974 183.074673 182"></polygon>
                <polygon id="Path" fill="#363636" fill-rule="nonzero" opacity="0.2" points="168 186 173.882004 194 178 189.760849"></polygon>
                <polygon id="Path" fill="#EEEEEE" fill-rule="nonzero" points="178 190.055195 173.945357 194 168 186.256494 170.524253 185 171.385468 185.580519"></polygon>
                <path d="M191,145.39615 C178.91706,148.707267 177.835977,137.578403 178.016835,132 C183.127597,133.285328 188.608204,136.794033 191,145.39615 Z" id="Path" fill="#302F2F" fill-rule="nonzero"></path>
                <path d="M182.880277,137.218599 C182.589751,137.992682 179.848431,146.613156 172.089311,148.188229 C164.330192,149.763302 152.933272,156.903911 154.122353,164.696488 C155.311435,172.489065 139.598128,143.098734 162.703246,135.891894 C185.808365,128.685054 182.880277,137.218599 182.880277,137.218599 Z" id="Path" fill="#302F2F" fill-rule="nonzero"></path>
                <path d="M241.923308,169 L231,115.208543 L346.086987,92 L357,145.785301 L241.923308,169 Z M237.393378,119.43947 L246.16497,162.628987 L350.616917,141.564633 L341.845325,98.383324 L237.393378,119.43947 Z" id="Shape" fill="#ECF3FE" fill-rule="nonzero"></path>
                <path d="M256.586538,194.843496 L256.586538,194.843496 C252.257853,195.706852 248.044614,192.911874 247.156407,188.587736 L247.156407,188.587736 C246.29325,184.257898 249.089005,180.043869 253.413462,179.156504 L253.413462,179.156504 C257.742147,178.293148 261.955386,181.088126 262.843593,185.412264 L262.843593,185.412264 C263.70675,189.742102 260.910995,193.956131 256.586538,194.843496 L256.586538,194.843496 Z" id="Path" fill="#52D1BD" fill-rule="nonzero"></path>
                <path d="M280.587749,188.843512 L280.587749,188.843512 C276.258568,189.706782 272.044846,186.912081 271.156536,182.588372 L271.156536,182.588372 C270.293106,178.259146 273.087871,174.04524 277.412284,173.156051 L277.412284,173.156051 C281.741881,172.294055 285.95514,175.089353 286.843496,179.413215 L286.843496,179.413215 C287.706851,183.741976 284.911879,187.955288 280.587749,188.843512 L280.587749,188.843512 Z" id="Path" fill="#52D1BD" fill-rule="nonzero"></path>
                <path d="M303.587736,183.843593 L303.587736,183.843593 C299.257898,184.70675 295.043869,181.910995 294.156504,177.586538 L294.156504,177.586538 C293.293148,173.257853 296.088126,169.044614 300.412264,168.156407 L300.412264,168.156407 C304.742102,167.29325 308.956131,170.089005 309.843496,174.413462 L309.843496,174.413462 C310.706852,178.742147 307.911874,182.955386 303.587736,183.843593 L303.587736,183.843593 Z" id="Path" fill="#52D1BD" fill-rule="nonzero"></path>
                <path d="M327.586538,180.843496 L327.586538,180.843496 C323.257853,181.706852 319.044614,178.911874 318.156407,174.587736 L318.156407,174.587736 C317.29325,170.257898 320.089005,166.043869 324.413462,165.156504 L324.413462,165.156504 C328.742147,164.293148 332.955386,167.088126 333.843593,171.412264 L333.843593,171.412264 C334.70675,175.742102 331.910995,179.956131 327.586538,180.843496 L327.586538,180.843496 Z" id="Path" fill="#52D1BD" fill-rule="nonzero"></path>
                <path d="M351.587736,174.843496 L351.587736,174.843496 C347.258546,175.706852 343.044816,172.911874 342.156504,168.587736 L342.156504,168.587736 C341.293148,164.258546 344.088126,160.044816 348.412264,159.156504 L348.412264,159.156504 C352.741454,158.293148 356.955184,161.088126 357.843496,165.412264 L357.843496,165.412264 C358.706852,169.741454 355.911874,173.955184 351.587736,174.843496 L351.587736,174.843496 Z" id="Path" fill="#ECF3FE" fill-rule="nonzero"></path>
                <path d="M253.455957,232.890963 L151.287007,253.86037 C149.489371,254.229716 147.620698,253.85946 146.092297,252.831097 C144.563895,251.802735 143.50104,250.200555 143.137674,248.377211 L143.137674,248.377211 C142.773502,246.554032 143.138571,244.658805 144.152526,243.108686 C145.16648,241.558567 146.746212,240.480608 148.544011,240.112079 L250.71296,219.1406 C254.456199,218.372674 258.104591,220.827441 258.862294,224.623759 L258.862294,224.623759 C259.226504,226.44719 258.861492,228.342675 257.847575,229.893125 C256.833658,231.443575 255.253915,232.521951 253.455957,232.890963 Z" id="Path" fill="#ECF3FE" fill-rule="nonzero"></path>
                <path d="M366.4187,239.795641 L188.341338,275.86036 C184.573573,276.623041 180.901276,274.18504 180.138608,270.414649 L180.138608,270.414649 C179.772012,268.603672 180.139416,266.721133 181.159976,265.181272 C182.180536,263.64141 183.77063,262.5704 185.580369,262.203908 L363.657731,226.139189 C367.42592,225.37781 371.097741,227.816416 371.860461,231.586957 L371.860461,231.586957 C372.62259,235.357457 370.186356,239.03242 366.4187,239.795641 Z" id="Path" fill="#ECF3FE" fill-rule="nonzero"></path>
                <path d="M372.434984,269.745171 L164.319366,311.861805 C162.514919,312.227355 160.639166,311.860904 159.104973,310.843112 C157.570781,309.82532 156.503899,308.239609 156.139156,306.435006 L156.139156,306.435006 C155.37912,302.677601 157.808665,299.0154 161.565977,298.254829 L369.681595,256.138195 C371.486041,255.772645 373.361795,256.139096 374.895987,257.156888 C376.430179,258.17468 377.497062,259.760391 377.861805,261.564994 L377.861805,261.564994 C378.227356,263.369433 377.860904,265.245179 376.843108,266.779365 C375.825311,268.313551 374.239594,269.380429 372.434984,269.745171 L372.434984,269.745171 Z" id="Path" fill="#ECF3FE" fill-rule="nonzero"></path>
                <path d="M378.43496,300.744432 L170.318473,342.860853 C166.561036,343.620844 162.898805,341.19144 162.138228,337.434345 L162.138228,337.434345 C161.772637,335.629754 162.139033,333.753853 163.156796,332.219422 C164.174559,330.684991 165.760294,329.617757 167.565072,329.252558 L375.68156,287.138187 C377.486014,286.772657 379.361775,287.139088 380.895974,288.156826 C382.430173,289.174563 383.497059,290.760189 383.861804,292.564695 L383.861804,292.564695 C384.227357,294.369037 383.860903,296.244682 382.843103,297.778785 C381.825302,299.312889 380.239578,300.37971 378.43496,300.744432 L378.43496,300.744432 Z" id="Path" fill="#ECF3FE" fill-rule="nonzero"></path>
                <path d="M344.434807,337.484064 L176.309831,370.86359 C172.556298,371.60863 168.897872,369.227023 168.138085,365.543847 L168.138085,365.543847 C167.772873,363.774761 168.138889,361.935768 169.155594,360.431526 C170.1723,358.927285 171.756388,357.881048 173.559291,357.523034 L341.688363,324.135468 C343.490943,323.77713 345.364755,324.136352 346.89736,325.134065 C348.429965,326.131779 349.495743,327.686208 349.860109,329.455211 L349.860109,329.455211 C350.228211,331.226121 349.863037,333.067978 348.845182,334.574293 C347.827326,336.080608 346.240463,337.12755 344.434807,337.484064 L344.434807,337.484064 Z" id="Path" fill="#ECF3FE" fill-rule="nonzero"></path>
                <path d="M390.434928,358.746709 L182.32049,400.861778 C180.515787,401.227353 178.63977,400.860973 177.105244,399.843256 C175.570718,398.82554 174.503418,397.239877 174.138196,395.435181 L174.138196,395.435181 C173.772643,393.630809 174.139097,391.755133 175.156897,390.221004 C176.174698,388.686875 177.760422,387.620036 179.56504,387.255308 L387.681527,345.13819 C389.485981,344.772654 391.361743,345.13909 392.895941,346.156845 C394.43014,347.174599 395.497027,348.760251 395.861772,350.564787 L395.861772,350.564787 C396.227363,352.369408 395.860967,354.24534 394.843204,355.779796 C393.825441,357.314252 392.239706,358.381504 390.434928,358.746709 L390.434928,358.746709 Z" id="Path" fill="#ECF3FE" fill-rule="nonzero"></path>
                <path d="M714.657207,195.103154 L497.72376,81.7660965 C490.12946,77.7972831 480.760357,80.7426116 476.793387,88.3458967 L333.758901,362.939463 C331.85593,366.592922 331.480156,370.853804 332.714249,374.78473 C333.948342,378.715656 336.691207,381.994611 340.339424,383.900238 L557.27287,497.233184 C564.867062,501.203221 574.237061,498.257611 578.203244,490.653383 L721.237729,216.072155 C723.143302,212.417886 723.520501,208.154985 722.286273,204.222086 C721.052045,200.289187 718.307592,197.008775 714.657207,195.103154 Z" id="Path" fill="#3A7EC1" fill-rule="nonzero" opacity="0.2" style="mix-blend-mode: multiply;"></path>
                <path d="M366.430975,394.931367 C364.531108,402.533504 369.089505,410.252501 376.622431,412.189147 L458,433 L368.676341,386 L366.430975,394.931367 Z" id="Path"></path>
                <path d="M459.543582,84.4398831 C458.387768,84.1485594 457.200003,84 456.007528,84 C449.49182,84.0193029 443.815617,88.415347 442.210677,94.6852365 L424,166 L466,86.0672442 L459.543582,84.4398831 Z" id="Path"></path>
                <path d="M614.666226,471.569453 C622.213469,473.46595 629.877979,468.920474 631.79859,461.409017 L679,276 L581,463.069995 L614.666226,471.569453 Z" id="Path"></path>
                <path d="M706.001498,150.515001 C704.10423,147.272718 701.003689,144.931602 697.389874,144.012648 L592,117 L703.875247,176 L707.565943,161.283165 C708.4895,157.626687 707.926074,153.748597 706.001498,150.515001 L706.001498,150.515001 Z" id="Path"></path>
                <path d="M696.516609,144.740662 C700.132149,145.663515 703.235552,147.995433 705.143938,151.223292 C707.052324,154.451151 707.609324,158.310471 706.692374,161.952034 L702.999556,176.623752 L705.619405,178 L709.480452,162.656689 C710.584514,158.270873 709.913468,153.622914 707.614962,149.73549 C705.316455,145.848066 701.578807,143.039675 697.224399,141.928238 L580,112 L591.057938,117.810827 L696.516609,144.740662 Z" id="Path" fill="#444444" fill-rule="nonzero"></path>
                <path d="M443.452518,95.4314233 C445.017088,89.2282664 450.550515,84.8790109 456.902332,84.8599134 C458.064813,84.860707 459.222702,85.0068916 460.349442,85.2951147 L466.649544,86.9051553 L468,84.2959906 L461.046975,82.520451 C452.084311,80.2331728 442.978029,85.6982433 440.704968,94.7285629 L420,177 L425.699899,165.987159 L443.452518,95.4314233 Z" id="Path" fill="#444444" fill-rule="nonzero"></path>
                <path d="M377.506765,410.954749 C369.970344,409.061248 365.40983,401.514217 367.31058,394.081445 L369.556988,385.349054 L366.934466,384 L364.519526,393.384636 C362.229649,402.336426 367.722688,411.426111 376.799753,413.705523 L470,437 L458.922104,431.303994 L377.506765,410.954749 Z" id="Path" fill="#444444" fill-rule="nonzero"></path>
                <path d="M631.095396,461.527837 C629.177471,469.042579 621.523681,473.590043 613.986992,471.692717 L580.367851,463.189542 L579,465.804012 L613.282529,474.479299 C617.641957,475.58428 622.262876,474.91513 626.127483,472.619238 C629.99209,470.323345 632.783382,466.589035 633.88655,462.238825 L684,265 L678.22463,276.041834 L631.095396,461.527837 Z" id="Path" fill="#444444" fill-rule="nonzero"></path>
                <path d="M330.764998,347.345915 C326.799047,354.955508 329.741625,364.344508 337.338025,368.318734 L367.352109,384 L420,176 L330.764998,347.345915 Z" id="Path" fill="#F4B545" fill-rule="nonzero"></path>
                <path d="M494.201736,66.7656244 C486.595395,62.7982658 477.210407,65.7418886 473.237879,73.3409857 L468,83.3745759 L581,112 L494.201736,66.7656244 Z" id="Path" fill="#F4B545" fill-rule="nonzero"></path>
                <path d="M554.123455,481.218754 C561.731532,485.221215 571.118661,482.251547 575.092096,474.585215 L580,465.103401 L470,437 L554.123455,481.218754 Z" id="Path" fill="#F4B545" fill-rule="nonzero"></path>
                <path d="M709.639753,180.381027 L705.073585,178 L683,265 L716.234872,201.339407 C720.205006,193.732078 717.25243,184.349196 709.639753,180.381027 L709.639753,180.381027 Z" id="Path" fill="#F4B545" fill-rule="nonzero"></path>
                <polygon id="Path" fill="#F4B545" fill-rule="nonzero" points="704 177.190287 678.868305 276.483364 581.18086 464 459.134592 433.014795 370 386.445632 425.685801 166.46156 462.465941 95.8605408 463.866132 93.1773326 467.084728 87 546.555333 107.170253 546.575834 107.178465 581.029155 115.9302 581.066056 115.936358 592.144585 118.748903"></polygon>
                <polygon id="Path" fill="#444444" fill-rule="nonzero" points="703.359037 176 678 276 683.815496 264.858106 706 177.376972"></polygon>
                <polygon id="Path" fill="#F4B545" fill-rule="nonzero" points="425 166 419.167001 177.066109 366 384.632648 368.646838 386"></polygon>
                <polygon id="Path" fill="#F4B545" fill-rule="nonzero" points="459 433 470.045639 438.840797 579.635177 467 581 464.349624"></polygon>
                <polygon id="Path" fill="#E09F36" fill-rule="nonzero" points="588 116 579.593192 114.59375 579.556293 114.587636 461 94.6637228 462.40011 92 545.084483 105.891304 545.104983 105.899457 579.736687 111.718071"></polygon>
                <path d="M659.639081,260 L556,206.287494 L581.356819,158 L685,211.714542 L659.639081,260 Z M563.285217,204.014854 L657.349383,252.764614 L677.710683,213.989219 L583.646518,165.239459 L563.285217,204.014854 Z" id="Shape" fill="#FFDCA4" fill-rule="nonzero"></path>
                <path d="M552.296911,235.097696 L552.296911,235.097696 C548.387211,233.043906 546.870072,228.218301 548.901188,224.296829 L548.901188,224.296829 C550.955017,220.387204 555.780715,218.870094 559.702262,220.901171 L559.702262,220.901171 C563.613142,222.955001 565.130467,227.782101 563.097985,231.704064 L563.097985,231.704064 C561.044204,235.613852 556.21782,237.130273 552.296911,235.097696 L552.296911,235.097696 Z" id="Path" fill="#E29D2D" fill-rule="nonzero"></path>
                <path d="M574.296866,246.098879 L574.296866,246.098879 C570.387343,244.043628 568.870378,239.21854 570.900723,235.296589 L570.900723,235.296589 C572.954806,231.387182 577.781101,229.870157 581.703134,231.901121 L581.703134,231.901121 C585.612657,233.956372 587.129622,238.78146 585.099277,242.703411 L585.099277,242.703411 C583.045194,246.612818 578.218899,248.129843 574.296866,246.098879 L574.296866,246.098879 Z" id="Path" fill="#E29D2D" fill-rule="nonzero"></path>
                <path d="M595.297647,257.098805 L595.297647,257.098805 C591.386996,255.045729 589.869571,250.219121 591.901897,246.297647 L591.901897,246.297647 C593.954973,242.386996 598.781581,240.869571 602.703055,242.901897 L602.703055,242.901897 C606.612786,244.955742 608.129937,249.781477 606.098805,253.703055 L606.098805,253.703055 C604.04496,257.612786 599.219225,259.129937 595.297647,257.098805 L595.297647,257.098805 Z" id="Path" fill="#E29D2D" fill-rule="nonzero"></path>
                <path d="M526.809949,262.216985 L433.744359,214.04779 C430.334526,212.282442 429.012262,208.10821 430.79094,204.724194 L430.79094,204.724194 C431.643385,203.096321 433.113053,201.871602 434.876098,201.319909 C436.639144,200.768215 438.55088,200.934821 440.190051,201.783015 L533.255641,249.95221 C536.665474,251.717558 537.987738,255.89179 536.20906,259.275806 L536.20906,259.275806 C535.356615,260.903679 533.886947,262.128398 532.123902,262.680091 C530.360856,263.231785 528.44912,263.065179 526.809949,262.216985 Z" id="Path" fill="#E29D2D" fill-rule="nonzero"></path>
                <path d="M609.818869,340.209059 L448.740275,256.139371 C447.103541,255.285173 445.873138,253.815308 445.319877,252.053292 C444.766616,250.291275 444.935841,248.381521 445.790306,246.744363 L445.790306,246.744363 C447.568334,243.334527 451.772548,242.012261 455.18087,243.790941 L616.257408,327.860629 C619.665632,329.639498 620.987272,333.845702 619.209433,337.255637 L619.209433,337.255637 C617.431406,340.665473 613.227191,341.987739 609.818869,340.209059 L609.818869,340.209059 Z" id="Path" fill="#FFDCA4" fill-rule="nonzero"></path>
                <path d="M594.851525,367.212075 L406.729834,269.08721 C403.333229,267.315403 402.016094,263.125897 403.787872,259.729499 L403.787872,259.729499 C405.559839,256.333199 409.749722,255.016182 413.146426,256.787801 L601.270166,354.912666 C604.666771,356.684473 605.983906,360.873979 604.212128,364.270377 L604.212128,364.270377 C602.43934,367.666937 598.24883,368.983862 594.851525,367.212075 L594.851525,367.212075 Z" id="Path" fill="#FFDCA4" fill-rule="nonzero"></path>
                <path d="M580.853456,393.212476 L392.729832,295.087257 C389.333228,293.315444 388.016094,289.125922 389.787872,285.729512 L389.787872,285.729512 C391.559837,282.3332 395.749718,281.016179 399.14642,282.787804 L587.270044,380.913023 C590.666908,382.685658 591.98395,386.875806 590.212004,390.272817 L590.212004,390.272817 C588.438521,393.667426 584.249723,394.98319 580.853456,393.212476 L580.853456,393.212476 Z" id="Path" fill="#FFDCA4" fill-rule="nonzero"></path>
                <path d="M530.7932,402.203902 L377.752028,322.195753 C374.335212,320.409251 373.010239,316.184998 374.79256,312.76043 L374.79256,312.76043 C376.575071,309.335962 380.789885,308.008023 384.2068,309.794335 L537.247972,389.810746 C540.664788,391.597248 541.989761,395.821501 540.20744,399.246069 L540.20744,399.246069 C538.421984,402.667453 534.207931,403.991454 530.7932,402.203902 Z" id="Path" fill="#FFDCA4" fill-rule="nonzero"></path>
                <path d="M552.853159,447.212199 L364.729826,349.087334 C361.333228,347.315527 360.016096,343.126021 361.78787,339.729623 L361.78787,339.729623 C363.560655,336.333063 367.751156,335.016138 371.148453,336.787925 L559.271786,434.91279 C562.667619,436.685329 563.983775,440.874646 562.211693,444.270501 L562.211693,444.270501 C560.43973,447.666801 556.249856,448.983818 552.853159,447.212199 L552.853159,447.212199 Z" id="Path" fill="#FFDCA4" fill-rule="nonzero"></path>
                <circle id="Oval" fill="#FFDCA4" fill-rule="nonzero" cx="506" cy="161" r="45"></circle>
                <path d="M486.954042,195.319031 C486.72885,195.207017 486.510315,195.081853 486.299549,194.944176 L486.287238,194.944176 C479.766679,191.266384 474.453115,185.745132 471,179.059417 C475.78386,175.562648 481.797899,174.243393 487.588018,175.420627 L487.600328,175.420627 C488.569862,175.615495 489.522732,175.886943 490.450144,176.232469 C491.323508,176.547764 492.17484,176.922086 492.998359,177.352893 L499.752565,180.900558 C500.571233,181.329468 501.360206,181.813814 502.114075,182.350275 L502.126385,182.350275 C502.939713,182.917045 503.706766,183.548656 504.420189,184.23905 C507.427246,187.111311 509.527089,190.815959 510.456299,194.888258 C510.806153,196.42584 510.988469,197.997414 511,199.574987 C503.746202,200.666384 496.334489,199.645427 489.635618,196.632061 C489.319655,196.497444 489.020107,196.350402 488.695938,196.18472 C488.643189,196.168891 488.592286,196.147366 488.544112,196.120518 L488.531801,196.120518 C488.461031,196.098501 488.394936,196.063387 488.33689,196.016967 C488.274681,196.000974 488.217057,195.970472 488.16865,195.927913 C487.919876,195.824393 487.676746,195.70756 487.440295,195.577909 L487.270004,195.488855 L487.064834,195.381162 L487.003283,195.348026 L486.954042,195.319031 Z" id="Path" fill="#F4B545" fill-rule="nonzero"></path>
                <path d="M492,144.519428 C492,144.519428 501.801698,121.028099 514.57211,126.960294 C527.342522,132.892488 534.113743,132.393443 536.563653,134.951048 C539.013563,137.508653 530.477995,159.040023 527.577219,162.603766 C524.676444,166.16751 492,144.519428 492,144.519428 Z" id="Path" fill="#E09F36" fill-rule="nonzero"></path>
                <path d="M503.467619,179.330037 L500.151788,186.091954 C498.748229,188.959528 494.984975,189.862564 491.789683,188.095566 C488.59439,186.328567 487.129541,182.536249 488.533099,179.670846 L491.842801,172.908929 C492.430224,171.741336 493.40864,170.850482 494.584542,170.412555 C494.861683,170.302214 495.146536,170.215117 495.436484,170.152064 C496.011427,170.021228 496.600501,169.974486 497.187357,170.013135 C499.317311,170.15685 501.29168,171.247522 502.625892,173.017467 C502.990692,173.505846 503.292333,174.043906 503.522781,174.617317 C503.535039,174.643366 503.547297,174.675928 503.557512,174.704147 C503.660245,174.967192 503.744911,175.237798 503.810847,175.513841 C504.151529,176.786567 504.029001,178.148904 503.467619,179.330037 Z" id="Path" fill="#F4CB95" fill-rule="nonzero"></path>
                <path d="M526.124577,162.910967 L521.320869,172.32375 C518.006031,178.772483 511.103905,182.437333 504.019377,181.510394 L502.753315,184 C500.781428,183.742689 498.869802,183.131606 497.106923,182.195036 L495.869357,181.53944 C494.10753,180.605402 492.522402,179.359942 491.187777,177.861048 L492.453839,175.371442 C487.645046,169.99102 486.627722,162.129322 489.903396,155.662065 L494.707104,146.251356 C499.089184,137.82922 509.30432,134.569207 517.616314,138.940215 L518.85388,139.597886 C522.266207,141.40461 524.971752,144.343764 526.523529,147.929765 L526.523529,147.929765 C528.623648,152.727323 528.476935,158.236591 526.124577,162.910967 L526.124577,162.910967 Z" id="Path" fill="#D8A471" fill-rule="nonzero"></path>
                <path d="M527.060737,159.903765 L520.916812,171.696612 C519.436719,174.548199 517.183537,176.926913 514.414404,178.56129 C513.999974,178.811629 513.554462,179.033004 513.121382,179.241965 C512.593442,179.502316 512.051037,179.732341 511.496816,179.930916 C506.935625,181.615346 501.874088,181.298272 497.559534,179.057831 L496.316244,178.40819 C487.847776,173.985356 484.553047,163.559831 488.945605,155.085249 L495.317467,142.853791 C497.699933,138.605699 501.765304,135.556916 506.515367,134.456042 C507.244209,134.282611 507.984437,134.16093 508.730496,134.091912 C512.078163,133.744271 515.454298,134.387507 518.43852,135.941527 L519.68181,136.591168 C522.019648,137.795667 524.041176,139.531982 525.583294,141.660023 C525.8941,142.062802 526.181896,142.482771 526.445308,142.917927 C526.770433,143.444122 527.065159,143.988447 527.328044,144.548236 C529.647833,149.427074 529.548934,155.108363 527.060737,159.903765 Z" id="Path" fill="#F4CB95" fill-rule="nonzero"></path>
                <path d="M528.227442,169.290045 C526.48343,172.664177 522.35232,173.976571 519,172.22147 L525.315127,160 C526.130635,160.426349 526.852192,161.014099 527.436519,161.727998 L527.436519,161.727998 C529.183403,163.860732 529.494788,166.837898 528.227442,169.290045 L528.227442,169.290045 Z" id="Path" fill="#EDC28E" fill-rule="nonzero"></path>
                <path d="M527.539553,167.714543 C527.037412,168.713544 526.171255,169.46519 525.132077,169.803738 C524.092899,170.142286 522.966047,170.039931 522,169.519243 L525.784702,162 C526.751017,162.517323 527.478796,163.410056 527.807903,164.481768 C528.13701,165.553481 528.04048,166.716363 527.539553,167.714543 L527.539553,167.714543 Z" id="Path" fill="#D8A471" fill-rule="nonzero"></path>
                <path d="M495,142.778452 L488.679867,155 C485.595763,153.37989 484.209116,149.690184 485.4561,146.421927 C486.703083,143.15367 490.187305,141.345775 493.55645,142.218812 C493.660729,142.245559 493.760919,142.276422 493.869287,142.311399 L494.032862,142.369009 C494.365382,142.479842 494.688752,142.616742 495,142.778452 L495,142.778452 Z" id="Path" fill="#EDC28E" fill-rule="nonzero"></path>
                <path d="M487.465991,147.276749 C486.961606,148.274582 486.86219,149.438607 487.189661,150.512211 C487.517132,151.585815 488.244602,152.480849 489.211698,153 L493,145.480056 C490.991243,144.399886 488.514903,145.203863 487.465991,147.276749 Z" id="Path" fill="#D8A471" fill-rule="nonzero"></path>
                <path d="M527.039816,160.204106 L520.851611,171.666243 C519.360851,174.437863 517.091431,176.74987 514.302341,178.338414 C513.884924,178.581733 513.436201,178.796899 513,179 C527.747337,158.927184 525.672775,153.909986 520.323579,151.281738 C514.584097,148.438324 516.944589,141 516.944589,141 L526.4283,143.684553 C526.755768,144.195992 527.052618,144.725052 527.317398,145.269143 C529.654762,150.015201 529.552045,155.541723 527.039816,160.204106 L527.039816,160.204106 Z" id="Path" fill="#E5B67F" fill-rule="nonzero"></path>
                <path d="M498.996181,189.551456 L499.158637,192.679612 L490.301704,196 C489.985018,195.873786 489.684783,195.735922 489.359871,195.580583 C489.307002,195.565742 489.255982,195.545561 489.207697,195.520388 L489.195358,195.520388 C489.124426,195.499746 489.058179,195.466824 489,195.423301 L499.092832,187.448544 L499.117509,187.431068 L500.783196,186.120388 L500.801704,186.120388 L500.968273,185.982524 L502.613396,183 L503,189.780583 L499.203878,189.586408 L498.996181,189.551456 Z" id="Path" fill="#CC8E2B" fill-rule="nonzero"></path>
                <path d="M487.929038,196.34914 L488.10193,196.440901 C488.341993,196.574492 488.588836,196.694876 488.841411,196.801541 C488.890557,196.845394 488.949061,196.876823 489.012221,196.893302 C489.071153,196.941133 489.138258,196.977314 489.21011,197 L489.222608,197 L490.62658,196.146414 L498.140119,191.513574 L499.171226,189.484173 L501.316762,188.83118 L502,185.702786 C501.78954,185.84399 501.571902,185.973634 501.348007,186.091168 L501.310512,186.103972 L501.298014,186.129579 C500.106513,186.810314 497.51104,188.069354 494.723927,188.075756 C494.10715,188.073027 493.492498,188.001472 492.890848,187.862359 C492.272837,187.265314 491.739908,186.582149 491.307735,185.832958 C489.985002,183.605098 489.589224,181.055009 489.491321,179.802371 L489.491321,179.770362 C489.457461,179.514859 489.436602,179.257724 489.428829,179 L487.318706,181.368702 L488.031107,183.541079 L487,185.572614 L487.524927,193.2869 L487.714484,196.210433 L487.714484,196.229638 L487.929038,196.34914 Z" id="Path" fill="#FFFFFF" fill-rule="nonzero"></path>
                <path d="M499.252033,188.976037 L499.207317,192.091209 L489.522358,195 C489.470103,194.98512 489.419676,194.964884 489.371951,194.939644 L489.359756,194.939644 C489.289647,194.918946 489.22417,194.885934 489.166667,194.842294 C489.10504,194.82726 489.047954,194.798585 489,194.758574 L498.581301,187.091358 L498.581301,187.079677 L501.148374,185.02561 L501.160569,185.002247 L501.197154,184.990565 L502.823171,182 L503,189.178523 L499.25,188.5808 L499.252033,188.976037 Z" id="Path" fill="#E09F36" fill-rule="nonzero"></path>
                <path d="M486.403587,195.80806 C486.157492,195.695219 485.918672,195.569131 485.688341,195.430438 L485.674888,195.430438 L483,185.848029 L486.058296,184.053805 L485.912556,183.888986 L483.345291,180.861755 L490,177 L488.430493,179.799824 L488.206278,180.206654 L488.206278,180.237949 L488.190583,180.354782 L488.190583,180.386077 L487.986547,182.651806 L487.986547,182.664324 L486.76009,196 L486.535874,195.891512 L486.46861,195.858131 L486.403587,195.80806 Z" id="Path" fill="#CC8E2B" fill-rule="nonzero"></path>
                <polygon id="Path" fill="#E09F36" fill-rule="nonzero" points="487.295906 196.717496 484 186.493847 486.820409 184.484216 487.180831 184.235955 484.336538 181.378812 491 177 490.778536 177.417335 489.263027 180.28946 489.263027 180.321562 488.959057 183.861423 488.952543 183.874264 487.814826 197 487.634615 196.907972 487.417494 196.796683 487.352357 196.76244"></polygon>
                <path d="M528.673823,141.27407 C528.673823,141.27407 522.179363,135.333406 520.687673,134.604705 C519.195983,133.876004 517.180748,133.110284 513.852493,132.330925 C510.524238,131.551566 504.401662,132.393274 504.401662,132.393274 L502.739612,133.476583 C502.024931,133.702597 501.260388,133.985114 501.154432,134.121502 C501.048476,134.25789 500.699446,134.651467 500.373269,135.015817 L499,135.910131 C499.114266,135.921822 499.382271,135.968583 499.718837,136.007551 L499.459141,137.37143 C499.515235,137.381172 502.135042,136.017293 505.567175,135.978325 C509.558172,136.490754 514.24723,138.413823 516.23338,142.185921 C519.83795,149.038435 532,152 532,152 L528.673823,141.27407 Z" id="Path" fill="#E09F36" fill-rule="nonzero"></path>
                <path d="M616.297647,269.098103 L616.297647,269.098103 C612.386996,267.045027 610.869571,262.218419 612.901897,258.296945 L612.901897,258.296945 C614.955742,254.387214 619.781477,252.870063 623.703055,254.901195 L623.703055,254.901195 C627.612786,256.95504 629.129937,261.780775 627.098805,265.702353 L627.098805,265.702353 C625.045729,269.613004 620.219121,271.130429 616.297647,269.098103 L616.297647,269.098103 Z" id="Path" fill="#E29D2D" fill-rule="nonzero"></path>
                <path d="M639.296182,279.098762 L639.296182,279.098762 C635.386024,277.044342 633.869649,272.217733 635.902455,268.296556 L635.902455,268.296556 C637.956302,264.387179 642.782043,262.870166 646.703626,264.901114 L646.703626,264.901114 C650.612702,266.956349 652.129492,271.781399 650.09938,275.70332 L650.09938,275.70332 C648.044724,279.612955 643.218359,281.12988 639.296182,279.098762 Z" id="Path" fill="#FFDCA4" fill-rule="nonzero"></path>
                <path d="M534.103659,166.720586 L280.153125,131.167955 C271.260754,129.922977 262.985823,135.733558 261.66889,144.14485 L214.177269,447.792294 C212.862388,456.201535 219.00397,464.034436 227.896341,465.279414 L481.846875,500.832045 C490.739246,502.077023 499.014177,496.266442 500.33111,487.85515 L505.01422,457.536759 L514.723007,462.664345 L547.822731,184.211808 C549.137612,175.802567 542.99603,167.965564 534.103659,166.720586 Z" id="Path" fill="#3A7EC1" fill-rule="nonzero" opacity="0.2" style="mix-blend-mode: multiply;"></path>
                <path d="M499.991777,323.014417 C499.286656,325.432406 433.659024,550.972694 494.519381,520.152603 C494.519381,520.152603 494.519381,520.152603 494.533772,520.152603 C479.874248,536.052837 463.981276,538.196897 455.528049,537.986817 C455.517733,537.994714 455.503417,537.994714 455.493101,537.986817 L455.42115,537.986817 C451.689971,537.885895 449.443041,537.338038 449.443041,537.338038 L441.84706,536.102268 L389,527.466299 C389.152125,525.31606 389.308362,523.139733 389.46871,520.937317 C393.278007,467.486168 397.91577,400.480687 397.91577,400.480687 L500,323 C500,323 499.991777,323.008238 499.991777,323.014417 Z" id="Path" fill="#1F6FE5" fill-rule="nonzero"></path>
                <path d="M543.830875,171.492749 L498.609427,476.78539 C498.008023,480.846959 495.816112,484.503465 492.51595,486.950417 C489.215788,489.39737 485.077745,490.434299 481.012256,489.833065 L468.911638,488.044337 L392.927956,476.812026 L239.22959,454.089238 C230.763178,452.837078 224.915833,444.965386 226.169125,436.507251 L271.390573,131.21461 C271.991977,127.153041 274.183888,123.496535 277.48405,121.049583 C280.784212,118.60263 284.922255,117.565701 288.987744,118.166935 L530.77041,153.910762 C539.236822,155.162922 545.084167,163.034614 543.830875,171.492749 L543.830875,171.492749 Z" id="Path" fill="#FFFFFF" fill-rule="nonzero"></path>
                <path d="M508.952724,247 L393,229.730757 L401.047276,175 L517,192.269243 L508.952724,247 Z M399.147996,225.138313 L504.389517,240.812613 L510.852004,196.863755 L405.610483,181.189456 L399.147996,225.138313 Z" id="Shape" fill="#ECF3FE" fill-rule="nonzero"></path>
                <path d="M398.827672,257.916006 L398.827672,257.916006 C394.462899,257.256733 391.450016,253.196127 392.084309,248.827653 L392.084309,248.827653 C392.74258,244.463171 396.802597,241.450054 401.170637,242.08429 L401.170637,242.08429 C405.535323,242.742597 408.54903,246.80219 407.916025,251.170618 L407.916025,251.170618 C407.256716,255.535595 403.196534,258.549068 398.827672,257.916006 L398.827672,257.916006 Z" id="Path" fill="#52D1BD" fill-rule="nonzero"></path>
                <path d="M422.827653,261.915691 L422.827653,261.915691 C418.463171,261.25742 415.450054,257.197403 416.08429,252.829363 L416.08429,252.829363 C416.742597,248.464677 420.80219,245.45097 425.170618,246.083975 L425.170618,246.083975 C429.535595,246.743284 432.549068,250.803466 431.916006,255.172328 L431.916006,255.172328 C431.256733,259.537101 427.196127,262.549984 422.827653,261.915691 L422.827653,261.915691 Z" id="Path" fill="#52D1BD" fill-rule="nonzero"></path>
                <path d="M446.82778,263.916015 L446.82778,263.916015 C442.462937,263.256812 439.450007,259.19664 440.08431,254.828633 L440.08431,254.828633 C440.742628,250.464414 444.802285,247.451028 449.170781,248.083966 L449.170781,248.083966 C453.535211,248.744231 456.548187,252.803246 455.916276,257.171348 L455.916276,257.171348 C455.256956,261.535858 451.19671,264.549009 446.82778,263.916015 L446.82778,263.916015 Z" id="Path" fill="#52D1BD" fill-rule="nonzero"></path>
                <path d="M470.827661,267.915736 L470.827661,267.915736 C466.463174,267.257474 463.450053,263.197515 464.08429,258.829538 L464.08429,258.829538 C464.74157,254.464297 468.801903,251.450087 473.170629,252.084245 L473.170629,252.084245 C477.53532,252.742543 480.549031,256.802079 479.916025,261.170444 L479.916025,261.170444 C479.257742,265.535976 475.196821,268.54995 470.827661,267.915736 L470.827661,267.915736 Z" id="Path" fill="#ECF3FE" fill-rule="nonzero"></path>
                <path d="M494.827664,271.916015 L494.827664,271.916015 C490.462896,271.256812 487.450017,267.19664 488.084309,262.828633 L488.084309,262.828633 C488.742615,258.464414 492.802204,255.451028 497.170626,256.083966 L497.170626,256.083966 C501.535598,256.743205 504.549067,260.802953 503.916006,265.171348 L503.916006,265.171348 C503.256698,269.535858 499.19652,272.549009 494.827664,271.916015 Z" id="Path" fill="#ECF3FE" fill-rule="nonzero"></path>
                <path d="M385.004633,292.925476 L280.95716,277.713433 C279.126161,277.446374 277.477643,276.471463 276.374508,275.003315 C275.271372,273.535166 274.80405,271.694134 275.075418,269.885501 L275.075418,269.885501 C275.639442,266.119414 279.187133,263.518045 282.999488,264.075119 L387.04284,279.287162 C388.873839,279.554221 390.522357,280.529132 391.625492,281.99728 C392.728628,283.465429 393.19595,285.306461 392.924582,287.115094 L392.924582,287.115094 C392.360496,290.879347 388.81551,293.480087 385.004633,292.925476 L385.004633,292.925476 Z" id="Path" fill="#52D1BD" fill-rule="nonzero"></path>
                <path d="M486.044298,337.92544 L306.922565,311.669568 C305.1022,311.403364 303.463255,310.431571 302.366525,308.968119 C301.269796,307.504666 300.805188,305.669523 301.07498,303.866675 L301.07498,303.866675 C301.635729,300.112635 305.162818,297.519586 308.953034,298.074879 L488.076815,324.330751 C491.867015,324.88615 494.485041,328.379589 493.9244,332.133644 L493.9244,332.133644 C493.655652,333.937049 492.674202,335.560699 491.196193,336.647021 C489.718183,337.733343 487.864832,338.193244 486.044298,337.92544 L486.044298,337.92544 Z" id="Path" fill="#ECF3FE" fill-rule="nonzero"></path>
                <path d="M481.038993,367.924303 L270.926034,336.81893 C269.104361,336.549328 267.464412,335.566711 266.367095,334.087324 C265.269778,332.607938 264.805017,330.753017 265.075094,328.930778 L265.075094,328.930778 C265.636361,325.135719 269.16671,322.514337 272.960431,323.075697 L483.071339,354.18107 C486.865043,354.742538 489.48549,358.274148 488.92433,362.069222 L488.92433,362.069222 C488.363063,365.864281 484.832713,368.485663 481.038993,367.924303 L481.038993,367.924303 Z" id="Path" fill="#ECF3FE" fill-rule="nonzero"></path>
                <path d="M478.038992,398.924303 L267.928042,367.81893 C266.105993,367.549817 264.465533,366.567406 263.367789,365.087963 C262.270045,363.60852 261.805008,361.753325 262.07505,359.930778 L262.07505,359.930778 C262.636317,356.135719 266.166667,353.514337 269.960388,354.075697 L480.071338,385.18107 C483.865043,385.742538 486.48549,389.274148 485.92433,393.069222 L485.92433,393.069222 C485.363063,396.864281 481.832713,399.485663 478.038992,398.924303 L478.038992,398.924303 Z" id="Path" fill="#ECF3FE" fill-rule="nonzero"></path>
                <path d="M433.030612,422.924972 L262.934889,397.801983 C259.1372,397.241204 256.514,393.71393 257.075749,389.923515 L257.075749,389.923515 C257.638628,386.132822 261.173279,383.514899 264.971423,384.075622 L435.065092,409.198612 C438.863076,409.76041 441.486034,413.288276 440.924232,417.079128 L440.924232,417.079128 C440.654444,418.899215 439.671145,420.537735 438.190733,421.634096 C436.710321,422.730457 434.854114,423.194813 433.030612,422.924972 Z" id="Path" fill="#ECF3FE" fill-rule="nonzero"></path>
                <path d="M469.038992,456.924303 L258.928042,425.81893 C257.105993,425.549817 255.465533,424.567406 254.367789,423.087963 C253.270045,421.60852 252.805008,419.753325 253.07505,417.930778 L253.07505,417.930778 C253.636317,414.135719 257.166667,411.514337 260.960388,412.075697 L471.071338,443.18107 C474.865043,443.742538 477.48549,447.274148 476.92433,451.069222 L476.92433,451.069222 C476.363063,454.864281 472.832713,457.485663 469.038992,456.924303 L469.038992,456.924303 Z" id="Path" fill="#ECF3FE" fill-rule="nonzero"></path>
                <circle id="Oval" fill="#ECF3FE" fill-rule="nonzero" transform="translate(330.507409, 202.201126) rotate(-45.000000) translate(-330.507409, -202.201126) " cx="330.507409" cy="202.201126" r="44.8256152"></circle>
                <path d="M323.596434,242.488823 C323.343915,242.457199 323.093432,242.410682 322.846261,242.349508 L322.833758,242.349508 C315.391505,241.012998 308.497412,237.501443 303,232.24704 C306.42569,227.283876 311.743855,223.997566 317.667979,223.183104 L317.682565,223.183104 C318.67313,223.043884 319.672978,222.983892 320.672841,223.003683 C321.612146,223.008763 322.549993,223.079291 323.479741,223.214767 L331.104422,224.348287 C332.028982,224.486938 332.943123,224.689345 333.840472,224.954097 L333.855059,224.954097 C334.818479,225.225039 335.75915,225.573013 336.66821,225.99474 C340.488326,227.740613 343.714273,230.590557 345.94119,234.1869 C346.781361,235.544375 347.471772,236.991238 348,238.501451 C341.422423,241.986588 333.999393,243.497329 326.60338,242.856109 C326.257467,242.83289 325.913637,242.794894 325.561473,242.742124 C325.506145,242.749538 325.450095,242.749538 325.394767,242.742124 L325.382264,242.742124 C325.311493,242.744281 325.240914,242.733557 325.173883,242.710461 C325.108624,242.714703 325.043231,242.704622 324.982172,242.680909 C324.709917,242.664813 324.438661,242.634518 324.169484,242.590143 L323.977773,242.560592 L323.744385,242.526818 L323.677703,242.526818 L323.596434,242.488823 Z" id="Path" fill="#727272" fill-rule="nonzero"></path>
                <path d="M313,191.162393 C313,191.162393 314.380246,165.541918 328.41584,167.065342 C342.451433,168.588766 348.673887,165.921753 351.842882,167.575873 C355.011876,169.229992 354.168049,192.565332 352.616562,196.913012 C351.065075,201.260692 313,191.162393 313,191.162393 Z" id="Path" fill="#302F2F" fill-rule="nonzero"></path>
                <path d="M334.953844,220.796956 L333.919526,228.205151 C333.479737,231.343418 330.226113,233.467686 326.685405,232.911483 C323.144697,232.35528 320.609802,229.347506 321.049591,226.209238 L322.08391,218.801044 C322.276507,217.517046 322.921959,216.356228 323.891931,215.549396 C324.117508,215.351217 324.357856,215.172373 324.61066,215.014586 C325.1105,214.697525 325.648815,214.452866 326.211003,214.287243 C328.25348,213.69283 330.439789,214.029863 332.233668,215.215674 C332.726971,215.5433 333.175615,215.939835 333.567287,216.394397 L333.626333,216.460713 C333.803009,216.670372 333.965606,216.892676 334.112951,217.126017 C334.822916,218.194892 335.123186,219.505729 334.953844,220.796956 Z" id="Path" fill="#F4B698" fill-rule="nonzero"></path>
                <path d="M349.834432,198.536976 L348.319067,208.799204 C347.258488,215.83719 341.903773,221.476023 334.8958,222.934701 L334.486242,225.641714 C332.532891,226.049896 330.522107,226.109853 328.54765,225.81879 L327.163344,225.615255 C325.19134,225.329695 323.286002,224.69844 321.536016,223.750875 L321.945574,221.043862 C315.654873,217.645873 312.156047,210.715908 313.174887,203.672161 L314.690252,193.407898 C316.125644,184.197324 324.751447,177.850325 334.033681,179.174705 L335.417987,179.378239 C339.231605,179.934632 342.740936,181.765137 345.368201,184.568379 L345.368201,184.568379 C348.910096,188.311097 350.552738,193.448629 349.834432,198.536976 Z" id="Path" fill="#000000" fill-rule="nonzero" opacity="0.28"></path>
                <path d="M349.823497,195.615635 L347.938771,208.508233 C347.489169,211.624065 346.175923,214.55008 344.149054,216.95202 C343.841013,217.32038 343.506626,217.666354 343.174266,217.998081 C342.77196,218.409088 342.346343,218.79641 341.899543,219.15811 C338.238141,222.181565 333.475662,223.511905 328.785499,222.821358 L327.425659,222.617844 C318.212207,221.240518 311.84191,212.641498 313.176728,203.383756 L315.130357,190.00883 C315.962541,185.304842 318.733325,181.172146 322.760457,178.628339 C323.375539,178.234075 324.017532,177.883842 324.681661,177.580243 C327.6514,176.186225 330.963601,175.69933 334.206619,176.180068 L335.566459,176.383582 C338.104284,176.749029 340.52128,177.707499 342.623034,179.181897 C343.037451,179.456226 343.43661,179.753121 343.81872,180.071252 C344.285797,180.453446 344.73164,180.861086 345.154241,181.292335 C348.856853,185.06997 350.584777,190.370509 349.823497,195.615635 L349.823497,195.615635 Z" id="Path" fill="#F4B698" fill-rule="nonzero"></path>
                <path d="M354.935052,203.411183 C354.444775,206.983215 351.33994,209.453954 348,208.929898 L349.776809,196 C350.588626,196.1259 351.368162,196.426464 352.068344,196.883543 C354.162287,198.246865 355.291071,200.817164 354.935052,203.411183 L354.935052,203.411183 Z" id="Path" fill="#F4B698" fill-rule="nonzero"></path>
                <path d="M353.953178,202.56142 C353.60291,204.758332 351.385823,206.278307 349,205.957187 L350.267878,198 C352.653262,198.322525 354.303169,200.36467 353.953178,202.56142 L353.953178,202.56142 Z" id="Path" fill="#E29586" fill-rule="nonzero"></path>
                <path d="M314,191.070723 L312.225421,204 C309.149496,203.517968 306.902032,200.642645 307.003289,197.318996 C307.104547,193.995348 309.522255,191.282653 312.620992,191.015872 C312.716223,191.015872 312.804128,191.002159 312.910346,191.0002 L313.066011,191.0002 C313.378585,190.997557 313.690872,191.021137 314,191.070723 Z" id="Path" fill="#F4B698" fill-rule="nonzero"></path>
                <path d="M309.046822,196.43858 C308.696831,198.63533 310.346738,200.677475 312.732122,201 L314,193.042813 C311.614177,192.721693 309.39709,194.241668 309.046822,196.43858 L309.046822,196.43858 Z" id="Path" fill="#E29586" fill-rule="nonzero"></path>
                <path d="M349.821141,196.575575 L347.905549,209.492354 C347.448584,212.614029 346.113831,215.545532 344.053768,217.951977 C343.740682,218.321028 343.400819,218.66765 343.063015,219 C350.051836,195.131995 346.445168,191.003112 340.591284,190.201803 C334.306907,189.318935 334,181.462843 334,181.462843 L343.711845,181 C344.186571,181.38291 344.639716,181.791315 345.069238,182.223373 C348.835351,186.007419 350.593959,191.318953 349.821141,196.575575 L349.821141,196.575575 Z" id="Path" fill="#EAA78C" fill-rule="nonzero"></path>
                <path d="M324.164165,242.816337 L324.349102,242.846191 C324.608768,242.891019 324.870439,242.921625 325.133074,242.937885 C325.191976,242.961841 325.255059,242.972024 325.318011,242.967739 C325.382674,242.991072 325.450759,243.001906 325.51903,242.999726 L325.531091,242.999726 L326.536183,241.720268 L331.93755,234.849581 L332.251139,232.593471 L334,231.262835 L333.656258,228.089781 C333.508236,228.292915 333.350568,228.487928 333.183865,228.674066 L333.153712,228.699655 L333.153712,228.727377 C332.281292,229.763738 330.311311,231.819399 327.780488,232.755536 C327.219765,232.963543 326.63946,233.106538 326.049719,233.182022 C325.30536,232.82681 324.611762,232.362373 323.989279,231.80234 C322.099705,230.147575 320.95591,227.880803 320.481506,226.733556 L320.481506,226.703702 C320.37265,226.474486 320.274698,226.239624 320.188019,226 L319,228.934223 L320.314661,230.74039 L320.003082,232.9965 L322.853525,240.08043 L323.924953,242.765159 L323.935004,242.782218 L324.164165,242.816337 Z" id="Path" fill="#FFFFFF" fill-rule="nonzero"></path>
                <path d="M333.171593,233.423443 L334.253064,236.662899 L325.601298,242.994371 C325.543869,243.001876 325.485691,243.001876 325.428262,242.994371 L325.415285,242.994371 C325.341826,242.996555 325.268567,242.985699 325.198991,242.962318 C325.131202,242.967942 325.063027,242.957693 325,242.932402 L331.817592,231.71824 L331.817592,231.705419 L333.643115,228.701015 L333.643115,228.673236 L333.675559,228.647594 L334.218457,225 L337,232.357157 L333.024513,233.028126 L333.171593,233.423443 Z" id="Path" fill="#565656" fill-rule="nonzero"></path>
                <polygon id="Path" fill="#565656" fill-rule="nonzero" points="324.449268 241.898685 318.304906 233.271826 320.189314 230.452253 320.431801 230.098728 317 228.311705 321.566144 222 321.500385 222.467773 321.050347 225.681828 321.060622 225.712007 321.901105 229.167493 321.89905 229.182582 325 242 324.810943 241.969821 324.580786 241.935331 324.515027 241.924553"></polygon>
                <path d="M345.250255,178.300391 C345.250255,178.300391 337.217854,174.484098 335.590574,174.236153 C333.963294,173.988207 331.836411,173.880764 328.496205,174.18863 C325.155999,174.496495 319.784751,177.321006 319.784751,177.321006 L318.616291,178.942983 C318.03308,179.399615 317.42336,179.930632 317.370341,180.102127 C317.317322,180.273623 317.131755,180.777779 316.962501,181.248875 L316,182.585714 C316.108077,182.562985 316.371134,182.521661 316.695366,182.45141 L316.925796,183.897758 C316.978815,183.887427 318.934406,181.676581 322.093123,180.521568 C325.967599,179.736408 330.94936,180.133121 334.071372,183.255166 C339.74646,188.926917 352,187.933069 352,187.933069 L345.250255,178.300391 Z" id="Path" fill="#302F2F" fill-rule="nonzero"></path>
                <path d="M447.837957,528.698606 C447.837957,528.698606 447.837957,528.67402 447.827697,528.663777 C445.794142,510.73708 449.005558,459.321267 500.529806,324.156026 C501.297747,322.142592 501.118245,319.89112 500.040948,318.024334 C498.963651,316.157547 497.102744,314.873312 494.972928,314.526829 L418.865443,302.146141 C414.806099,301.487566 410.709289,303.085697 408.17235,306.317427 L391.936743,327.009956 C388.384723,331.539542 382.643303,333.777497 376.956975,332.848937 L211.563912,305.948649 C206.682448,305.150902 201.908161,307.874369 200.117727,312.478064 C193.873421,328.57931 179.648797,370.191782 166.259346,444.404207 L160.103277,482.154756 C159.764638,484.231285 160.266282,486.357065 161.497804,488.064242 C162.729326,489.771418 164.589796,490.920079 166.669751,491.25742 L442.461656,536.12538 L450.054142,537.354639 C450.054142,537.354639 452.311367,537.901659 456.023477,538 C450.538419,537.774636 448.552061,532.742868 447.837957,528.698606 Z" id="Path" fill="#3A7EC1" fill-rule="nonzero"></path>
                <path d="M447.837957,528.698606 C447.837957,528.698606 447.837957,528.67402 447.827697,528.663777 C445.794142,510.73708 449.005558,459.321267 500.529806,324.156026 C501.297747,322.142592 501.118245,319.89112 500.040948,318.024334 C498.963651,316.157547 497.102744,314.873312 494.972928,314.526829 L418.865443,302.146141 C414.806099,301.487566 410.709289,303.085697 408.17235,306.317427 L391.936743,327.009956 C388.384723,331.539542 382.643303,333.777497 376.956975,332.848937 L211.563912,305.948649 C206.682448,305.150902 201.908161,307.874369 200.117727,312.478064 C193.873421,328.57931 179.648797,370.191782 166.259346,444.404207 L160.103277,482.154756 C159.764638,484.231285 160.266282,486.357065 161.497804,488.064242 C162.729326,489.771418 164.589796,490.920079 166.669751,491.25742 L442.461656,536.12538 L450.054142,537.354639 C450.054142,537.354639 452.311367,537.901659 456.023477,538 C450.538419,537.774636 448.552061,532.742868 447.837957,528.698606 Z" id="Path" fill="#3A7EC1" fill-rule="nonzero"></path>
                <path d="M499.991813,323.016475 C499.508808,324.682488 468.31608,432.343192 468.823645,489 L393,477.710649 C395.844819,437.048804 398.366271,400.470648 398.366271,400.470648 L500,323 C500,323 499.991813,323.008237 499.991813,323.016475 Z" id="Path" fill="#3A7EC1" fill-rule="nonzero" opacity="0.3" style="mix-blend-mode: multiply;"></path>
                <path d="M500.533596,324.14274 C500.533596,324.14274 500.533596,324.157081 500.533596,324.163228 C449.026446,459.317345 445.812892,510.730285 447.840345,528.657408 C447.840345,528.657408 447.840345,528.677896 447.85471,528.692238 C448.566781,532.732499 450.557296,537.764386 456.0425,538 C452.317979,537.899608 450.075058,537.354624 450.075058,537.354624 L442.492631,536.125335 L389.731662,527.542853 L166.670819,491.266551 C164.590216,490.931224 162.728681,489.783322 161.496791,488.076024 C160.264902,486.368727 159.763858,484.242291 160.10417,482.165719 L166.260403,444.412223 C179.658418,370.193933 193.891629,328.576373 200.138153,312.472695 C201.93051,307.873041 206.701974,305.152779 211.580539,305.949271 L262.357148,314.210089 L376.975947,332.854297 C382.656562,333.779207 388.391168,331.544124 391.941749,327.021323 L408.177788,306.316008 C410.715649,303.084256 414.813479,301.486823 418.873217,302.146672 L494.98683,314.525606 C497.111698,314.875606 498.967124,316.159111 500.041807,318.022426 C501.116491,319.885741 501.297001,322.132197 500.533596,324.14274 L500.533596,324.14274 Z" id="Path" fill="#3B82F4" fill-rule="nonzero"></path>
                <polygon id="Path" fill="#3A7EC1" fill-rule="nonzero" opacity="0.2" style="mix-blend-mode: multiply;" points="364 64 389 133 377.295601 131.227546"></polygon>
                <polygon id="Path" fill="#444444" fill-rule="nonzero" points="592 117 580.867287 111.289673 467.375582 83 466 85.5932031"></polygon>
                <circle id="Oval" fill="#4786D1" fill-rule="nonzero" cx="563.5" cy="12.5" r="12.5"></circle>
                <path d="M306.1856,353.949096 L214.919597,340.144935 C212.411084,339.764751 210.67882,337.37834 211.050102,334.814221 L211.601131,331.007765 C211.779264,329.77608 212.428828,328.667183 213.406906,327.92505 C214.384983,327.182918 215.611445,326.86835 216.816448,327.050558 L308.080403,340.854719 C310.588916,341.234903 312.32118,343.621314 311.949898,346.185433 L311.398869,349.993983 C311.026885,352.557057 308.693477,354.327326 306.1856,353.949096 L306.1856,353.949096 Z" id="Path" fill="#B3CEF6" fill-rule="nonzero"></path>
                <circle id="Oval" fill="#52D1BD" fill-rule="nonzero" cx="119" cy="430" r="12"></circle>
                <circle id="Oval" fill="#52D1BD" fill-rule="nonzero" cx="87.5" cy="413.5" r="5.5"></circle>
            </g>
        </g>
    </g>
</svg>